<svg width="215" height="88" viewBox="0 0 215 88" fill="none" xmlns="http://www.w3.org/2000/svg">
<path d="M108.25 20.75V16.25H111.25L107.5 11.75L103.75 16.25H106.75V20.75H103V20.7125C102.874 20.72 102.754 20.75 102.625 20.75C101.133 20.75 99.7024 20.1574 98.6475 19.1025C97.5926 18.0476 97 16.6168 97 15.125C97 12.239 99.1825 9.887 101.983 9.5645C102.229 8.28094 102.914 7.12306 103.921 6.29001C104.927 5.45696 106.193 5.0008 107.5 5C108.807 5.00072 110.073 5.45682 111.08 6.28985C112.087 7.12289 112.773 8.28081 113.018 9.5645C115.819 9.887 117.998 12.239 117.998 15.125C117.998 16.6168 117.406 18.0476 116.351 19.1025C115.296 20.1574 113.865 20.75 112.373 20.75C112.247 20.75 112.126 20.72 111.998 20.7125V20.75H108.25Z" fill="#FFC300"/>
<path d="M0.559 35.963C0.559 35.079 0.758333 34.286 1.157 33.584C1.55567 32.8733 2.09733 32.3187 2.782 31.92C3.47533 31.5213 4.24233 31.322 5.083 31.322C6.071 31.322 6.93333 31.5603 7.67 32.037C8.40667 32.5137 8.944 33.1897 9.282 34.065H7.865C7.61367 33.519 7.24967 33.0987 6.773 32.804C6.305 32.5093 5.74167 32.362 5.083 32.362C4.45033 32.362 3.88267 32.5093 3.38 32.804C2.87733 33.0987 2.483 33.519 2.197 34.065C1.911 34.6023 1.768 35.235 1.768 35.963C1.768 36.6823 1.911 37.315 2.197 37.861C2.483 38.3983 2.87733 38.8143 3.38 39.109C3.88267 39.4037 4.45033 39.551 5.083 39.551C5.74167 39.551 6.305 39.408 6.773 39.122C7.24967 38.8273 7.61367 38.407 7.865 37.861H9.282C8.944 38.7277 8.40667 39.3993 7.67 39.876C6.93333 40.344 6.071 40.578 5.083 40.578C4.24233 40.578 3.47533 40.383 2.782 39.993C2.09733 39.5943 1.55567 39.044 1.157 38.342C0.758333 37.64 0.559 36.847 0.559 35.963ZM12.226 30.88V40.5H11.043V30.88H12.226ZM14.8532 32.219C14.6279 32.219 14.4372 32.141 14.2812 31.985C14.1252 31.829 14.0472 31.6383 14.0472 31.413C14.0472 31.1877 14.1252 30.997 14.2812 30.841C14.4372 30.685 14.6279 30.607 14.8532 30.607C15.0699 30.607 15.2519 30.685 15.3992 30.841C15.5552 30.997 15.6332 31.1877 15.6332 31.413C15.6332 31.6383 15.5552 31.829 15.3992 31.985C15.2519 32.141 15.0699 32.219 14.8532 32.219ZM15.4252 33.376V40.5H14.2422V33.376H15.4252ZM16.9994 36.925C16.9994 36.1883 17.1468 35.547 17.4414 35.001C17.7361 34.4463 18.1434 34.0173 18.6634 33.714C19.1921 33.4107 19.7944 33.259 20.4704 33.259C21.3458 33.259 22.0651 33.4713 22.6284 33.896C23.2004 34.3207 23.5774 34.91 23.7594 35.664H22.4854C22.3641 35.2307 22.1258 34.8883 21.7704 34.637C21.4238 34.3857 20.9904 34.26 20.4704 34.26C19.7944 34.26 19.2484 34.494 18.8324 34.962C18.4164 35.4213 18.2084 36.0757 18.2084 36.925C18.2084 37.783 18.4164 38.446 18.8324 38.914C19.2484 39.382 19.7944 39.616 20.4704 39.616C20.9904 39.616 21.4238 39.4947 21.7704 39.252C22.1171 39.0093 22.3554 38.6627 22.4854 38.212H23.7594C23.5688 38.94 23.1874 39.525 22.6154 39.967C22.0434 40.4003 21.3284 40.617 20.4704 40.617C19.7944 40.617 19.1921 40.4653 18.6634 40.162C18.1434 39.8587 17.7361 39.4297 17.4414 38.875C17.1468 38.3203 16.9994 37.6703 16.9994 36.925ZM29.3159 40.5L26.5209 37.354V40.5H25.3379V30.88H26.5209V36.535L29.2639 33.376H30.9149L27.5609 36.925L30.9279 40.5H29.3159ZM36.9372 34.351V38.55C36.9372 38.8967 37.0108 39.1437 37.1582 39.291C37.3055 39.4297 37.5612 39.499 37.9252 39.499H38.7962V40.5H37.7302C37.0715 40.5 36.5775 40.3483 36.2482 40.045C35.9188 39.7417 35.7542 39.2433 35.7542 38.55V34.351H34.8312V33.376H35.7542V31.582H36.9372V33.376H38.7962V34.351H36.9372ZM43.3365 40.617C42.6692 40.617 42.0625 40.4653 41.5165 40.162C40.9792 39.8587 40.5545 39.4297 40.2425 38.875C39.9392 38.3117 39.7875 37.6617 39.7875 36.925C39.7875 36.197 39.9435 35.5557 40.2555 35.001C40.5762 34.4377 41.0095 34.0087 41.5555 33.714C42.1015 33.4107 42.7125 33.259 43.3885 33.259C44.0645 33.259 44.6755 33.4107 45.2215 33.714C45.7675 34.0087 46.1965 34.4333 46.5085 34.988C46.8292 35.5427 46.9895 36.1883 46.9895 36.925C46.9895 37.6617 46.8248 38.3117 46.4955 38.875C46.1748 39.4297 45.7372 39.8587 45.1825 40.162C44.6278 40.4653 44.0125 40.617 43.3365 40.617ZM43.3365 39.577C43.7612 39.577 44.1598 39.4773 44.5325 39.278C44.9052 39.0787 45.2042 38.7797 45.4295 38.381C45.6635 37.9823 45.7805 37.497 45.7805 36.925C45.7805 36.353 45.6678 35.8677 45.4425 35.469C45.2172 35.0703 44.9225 34.7757 44.5585 34.585C44.1945 34.3857 43.8002 34.286 43.3755 34.286C42.9422 34.286 42.5435 34.3857 42.1795 34.585C41.8242 34.7757 41.5382 35.0703 41.3215 35.469C41.1048 35.8677 40.9965 36.353 40.9965 36.925C40.9965 37.5057 41.1005 37.9953 41.3085 38.394C41.5252 38.7927 41.8112 39.0917 42.1665 39.291C42.5218 39.4817 42.9118 39.577 43.3365 39.577ZM58.3288 33.376V40.5H57.1458V39.447C56.9204 39.811 56.6041 40.097 56.1968 40.305C55.7981 40.5043 55.3561 40.604 54.8708 40.604C54.3161 40.604 53.8178 40.4913 53.3758 40.266C52.9338 40.032 52.5828 39.6853 52.3228 39.226C52.0714 38.7667 51.9458 38.2077 51.9458 37.549V33.376H53.1158V37.393C53.1158 38.095 53.2934 38.6367 53.6488 39.018C54.0041 39.3907 54.4894 39.577 55.1048 39.577C55.7374 39.577 56.2358 39.382 56.5998 38.992C56.9638 38.602 57.1458 38.0343 57.1458 37.289V33.376H58.3288ZM61.5092 34.689C61.7432 34.2817 62.0899 33.9437 62.5492 33.675C63.0172 33.3977 63.5589 33.259 64.1742 33.259C64.8069 33.259 65.3789 33.4107 65.8902 33.714C66.4102 34.0173 66.8175 34.4463 67.1122 35.001C67.4069 35.547 67.5542 36.184 67.5542 36.912C67.5542 37.6313 67.4069 38.2727 67.1122 38.836C66.8175 39.3993 66.4102 39.837 65.8902 40.149C65.3789 40.461 64.8069 40.617 64.1742 40.617C63.5675 40.617 63.0302 40.4827 62.5622 40.214C62.1029 39.9367 61.7519 39.5943 61.5092 39.187V43.88H60.3262V33.376H61.5092V34.689ZM66.3452 36.912C66.3452 36.3747 66.2369 35.9067 66.0202 35.508C65.8035 35.1093 65.5089 34.806 65.1362 34.598C64.7722 34.39 64.3692 34.286 63.9272 34.286C63.4939 34.286 63.0909 34.3943 62.7182 34.611C62.3542 34.819 62.0595 35.1267 61.8342 35.534C61.6175 35.9327 61.5092 36.3963 61.5092 36.925C61.5092 37.4623 61.6175 37.9347 61.8342 38.342C62.0595 38.7407 62.3542 39.0483 62.7182 39.265C63.0909 39.473 63.4939 39.577 63.9272 39.577C64.3692 39.577 64.7722 39.473 65.1362 39.265C65.5089 39.0483 65.8035 38.7407 66.0202 38.342C66.2369 37.9347 66.3452 37.458 66.3452 36.912ZM70.2944 30.88V40.5H69.1114V30.88H70.2944ZM75.4176 40.617C74.7502 40.617 74.1436 40.4653 73.5976 40.162C73.0602 39.8587 72.6356 39.4297 72.3236 38.875C72.0202 38.3117 71.8686 37.6617 71.8686 36.925C71.8686 36.197 72.0246 35.5557 72.3366 35.001C72.6572 34.4377 73.0906 34.0087 73.6366 33.714C74.1826 33.4107 74.7936 33.259 75.4696 33.259C76.1456 33.259 76.7566 33.4107 77.3026 33.714C77.8486 34.0087 78.2776 34.4333 78.5896 34.988C78.9102 35.5427 79.0706 36.1883 79.0706 36.925C79.0706 37.6617 78.9059 38.3117 78.5766 38.875C78.2559 39.4297 77.8182 39.8587 77.2636 40.162C76.7089 40.4653 76.0936 40.617 75.4176 40.617ZM75.4176 39.577C75.8422 39.577 76.2409 39.4773 76.6136 39.278C76.9862 39.0787 77.2852 38.7797 77.5106 38.381C77.7446 37.9823 77.8616 37.497 77.8616 36.925C77.8616 36.353 77.7489 35.8677 77.5236 35.469C77.2982 35.0703 77.0036 34.7757 76.6396 34.585C76.2756 34.3857 75.8812 34.286 75.4566 34.286C75.0232 34.286 74.6246 34.3857 74.2606 34.585C73.9052 34.7757 73.6192 35.0703 73.4026 35.469C73.1859 35.8677 73.0776 36.353 73.0776 36.925C73.0776 37.5057 73.1816 37.9953 73.3896 38.394C73.6062 38.7927 73.8922 39.0917 74.2476 39.291C74.6029 39.4817 74.9929 39.577 75.4176 39.577ZM80.184 36.912C80.184 36.184 80.3313 35.547 80.626 35.001C80.9207 34.4463 81.3237 34.0173 81.835 33.714C82.355 33.4107 82.9313 33.259 83.564 33.259C84.188 33.259 84.7297 33.3933 85.189 33.662C85.6483 33.9307 85.9907 34.2687 86.216 34.676V33.376H87.412V40.5H86.216V39.174C85.982 39.59 85.631 39.9367 85.163 40.214C84.7037 40.4827 84.1663 40.617 83.551 40.617C82.9183 40.617 82.3463 40.461 81.835 40.149C81.3237 39.837 80.9207 39.3993 80.626 38.836C80.3313 38.2727 80.184 37.6313 80.184 36.912ZM86.216 36.925C86.216 36.3877 86.1077 35.9197 85.891 35.521C85.6743 35.1223 85.3797 34.819 85.007 34.611C84.643 34.3943 84.24 34.286 83.798 34.286C83.356 34.286 82.953 34.39 82.589 34.598C82.225 34.806 81.9347 35.1093 81.718 35.508C81.5013 35.9067 81.393 36.3747 81.393 36.912C81.393 37.458 81.5013 37.9347 81.718 38.342C81.9347 38.7407 82.225 39.0483 82.589 39.265C82.953 39.473 83.356 39.577 83.798 39.577C84.24 39.577 84.643 39.473 85.007 39.265C85.3797 39.0483 85.6743 38.7407 85.891 38.342C86.1077 37.9347 86.216 37.4623 86.216 36.925ZM88.9692 36.912C88.9692 36.184 89.1165 35.547 89.4112 35.001C89.7058 34.4463 90.1088 34.0173 90.6202 33.714C91.1402 33.4107 91.7208 33.259 92.3622 33.259C92.9168 33.259 93.4325 33.389 93.9092 33.649C94.3858 33.9003 94.7498 34.234 95.0012 34.65V30.88H96.1972V40.5H95.0012V39.161C94.7672 39.5857 94.4205 39.9367 93.9612 40.214C93.5018 40.4827 92.9645 40.617 92.3492 40.617C91.7165 40.617 91.1402 40.461 90.6202 40.149C90.1088 39.837 89.7058 39.3993 89.4112 38.836C89.1165 38.2727 88.9692 37.6313 88.9692 36.912ZM95.0012 36.925C95.0012 36.3877 94.8928 35.9197 94.6762 35.521C94.4595 35.1223 94.1648 34.819 93.7922 34.611C93.4282 34.3943 93.0252 34.286 92.5832 34.286C92.1412 34.286 91.7382 34.39 91.3742 34.598C91.0102 34.806 90.7198 35.1093 90.5032 35.508C90.2865 35.9067 90.1782 36.3747 90.1782 36.912C90.1782 37.458 90.2865 37.9347 90.5032 38.342C90.7198 38.7407 91.0102 39.0483 91.3742 39.265C91.7382 39.473 92.1412 39.577 92.5832 39.577C93.0252 39.577 93.4282 39.473 93.7922 39.265C94.1648 39.0483 94.4595 38.7407 94.6762 38.342C94.8928 37.9347 95.0012 37.4623 95.0012 36.925Z" fill="#151515"/>
<path d="M104.769 40.617C104.102 40.617 103.495 40.4653 102.949 40.162C102.412 39.8587 101.987 39.4297 101.675 38.875C101.372 38.3117 101.22 37.6617 101.22 36.925C101.22 36.197 101.376 35.5557 101.688 35.001C102.009 34.4377 102.442 34.0087 102.988 33.714C103.534 33.4107 104.145 33.259 104.821 33.259C105.497 33.259 106.108 33.4107 106.654 33.714C107.2 34.0087 107.629 34.4333 107.941 34.988C108.262 35.5427 108.422 36.1883 108.422 36.925C108.422 37.6617 108.257 38.3117 107.928 38.875C107.607 39.4297 107.17 39.8587 106.615 40.162C106.06 40.4653 105.445 40.617 104.769 40.617ZM104.769 39.577C105.194 39.577 105.592 39.4773 105.965 39.278C106.338 39.0787 106.637 38.7797 106.862 38.381C107.096 37.9823 107.213 37.497 107.213 36.925C107.213 36.353 107.1 35.8677 106.875 35.469C106.65 35.0703 106.355 34.7757 105.991 34.585C105.627 34.3857 105.233 34.286 104.808 34.286C104.375 34.286 103.976 34.3857 103.612 34.585C103.257 34.7757 102.971 35.0703 102.754 35.469C102.537 35.8677 102.429 36.353 102.429 36.925C102.429 37.5057 102.533 37.9953 102.741 38.394C102.958 38.7927 103.244 39.0917 103.599 39.291C103.954 39.4817 104.344 39.577 104.769 39.577ZM111.161 34.533C111.369 34.1257 111.663 33.8093 112.045 33.584C112.435 33.3587 112.907 33.246 113.462 33.246V34.468H113.15C111.824 34.468 111.161 35.1873 111.161 36.626V40.5H109.978V33.376H111.161V34.533ZM117.851 36.912C117.851 36.184 117.998 35.547 118.293 35.001C118.588 34.4463 118.991 34.0173 119.502 33.714C120.022 33.4107 120.603 33.259 121.244 33.259C121.799 33.259 122.314 33.389 122.791 33.649C123.268 33.9003 123.632 34.234 123.883 34.65V30.88H125.079V40.5H123.883V39.161C123.649 39.5857 123.302 39.9367 122.843 40.214C122.384 40.4827 121.846 40.617 121.231 40.617C120.598 40.617 120.022 40.461 119.502 40.149C118.991 39.837 118.588 39.3993 118.293 38.836C117.998 38.2727 117.851 37.6313 117.851 36.912ZM123.883 36.925C123.883 36.3877 123.775 35.9197 123.558 35.521C123.341 35.1223 123.047 34.819 122.674 34.611C122.31 34.3943 121.907 34.286 121.465 34.286C121.023 34.286 120.62 34.39 120.256 34.598C119.892 34.806 119.602 35.1093 119.385 35.508C119.168 35.9067 119.06 36.3747 119.06 36.912C119.06 37.458 119.168 37.9347 119.385 38.342C119.602 38.7407 119.892 39.0483 120.256 39.265C120.62 39.473 121.023 39.577 121.465 39.577C121.907 39.577 122.31 39.473 122.674 39.265C123.047 39.0483 123.341 38.7407 123.558 38.342C123.775 37.9347 123.883 37.4623 123.883 36.925ZM128.261 34.533C128.469 34.1257 128.764 33.8093 129.145 33.584C129.535 33.3587 130.007 33.246 130.562 33.246V34.468H130.25C128.924 34.468 128.261 35.1873 128.261 36.626V40.5H127.078V33.376H128.261V34.533ZM131.486 36.912C131.486 36.184 131.633 35.547 131.928 35.001C132.222 34.4463 132.625 34.0173 133.137 33.714C133.657 33.4107 134.233 33.259 134.866 33.259C135.49 33.259 136.031 33.3933 136.491 33.662C136.95 33.9307 137.292 34.2687 137.518 34.676V33.376H138.714V40.5H137.518V39.174C137.284 39.59 136.933 39.9367 136.465 40.214C136.005 40.4827 135.468 40.617 134.853 40.617C134.22 40.617 133.648 40.461 133.137 40.149C132.625 39.837 132.222 39.3993 131.928 38.836C131.633 38.2727 131.486 37.6313 131.486 36.912ZM137.518 36.925C137.518 36.3877 137.409 35.9197 137.193 35.521C136.976 35.1223 136.681 34.819 136.309 34.611C135.945 34.3943 135.542 34.286 135.1 34.286C134.658 34.286 134.255 34.39 133.891 34.598C133.527 34.806 133.236 35.1093 133.02 35.508C132.803 35.9067 132.695 36.3747 132.695 36.912C132.695 37.458 132.803 37.9347 133.02 38.342C133.236 38.7407 133.527 39.0483 133.891 39.265C134.255 39.473 134.658 39.577 135.1 39.577C135.542 39.577 135.945 39.473 136.309 39.265C136.681 39.0483 136.976 38.7407 137.193 38.342C137.409 37.9347 137.518 37.4623 137.518 36.925ZM143.651 33.259C144.266 33.259 144.804 33.3933 145.263 33.662C145.731 33.9307 146.078 34.2687 146.303 34.676V33.376H147.499V40.656C147.499 41.306 147.36 41.8823 147.083 42.385C146.806 42.8963 146.407 43.295 145.887 43.581C145.376 43.867 144.778 44.01 144.093 44.01C143.157 44.01 142.377 43.789 141.753 43.347C141.129 42.905 140.761 42.3027 140.648 41.54H141.818C141.948 41.9733 142.217 42.32 142.624 42.58C143.031 42.8487 143.521 42.983 144.093 42.983C144.743 42.983 145.272 42.7793 145.679 42.372C146.095 41.9647 146.303 41.3927 146.303 40.656V39.161C146.069 39.577 145.722 39.9237 145.263 40.201C144.804 40.4783 144.266 40.617 143.651 40.617C143.018 40.617 142.442 40.461 141.922 40.149C141.411 39.837 141.008 39.3993 140.713 38.836C140.418 38.2727 140.271 37.6313 140.271 36.912C140.271 36.184 140.418 35.547 140.713 35.001C141.008 34.4463 141.411 34.0173 141.922 33.714C142.442 33.4107 143.018 33.259 143.651 33.259ZM146.303 36.925C146.303 36.3877 146.195 35.9197 145.978 35.521C145.761 35.1223 145.467 34.819 145.094 34.611C144.73 34.3943 144.327 34.286 143.885 34.286C143.443 34.286 143.04 34.39 142.676 34.598C142.312 34.806 142.022 35.1093 141.805 35.508C141.588 35.9067 141.48 36.3747 141.48 36.912C141.48 37.458 141.588 37.9347 141.805 38.342C142.022 38.7407 142.312 39.0483 142.676 39.265C143.04 39.473 143.443 39.577 143.885 39.577C144.327 39.577 144.73 39.473 145.094 39.265C145.467 39.0483 145.761 38.7407 145.978 38.342C146.195 37.9347 146.303 37.4623 146.303 36.925ZM152.522 36.912C152.522 36.184 152.669 35.547 152.964 35.001C153.259 34.4463 153.662 34.0173 154.173 33.714C154.693 33.4107 155.269 33.259 155.902 33.259C156.526 33.259 157.068 33.3933 157.527 33.662C157.986 33.9307 158.329 34.2687 158.554 34.676V33.376H159.75V40.5H158.554V39.174C158.32 39.59 157.969 39.9367 157.501 40.214C157.042 40.4827 156.504 40.617 155.889 40.617C155.256 40.617 154.684 40.461 154.173 40.149C153.662 39.837 153.259 39.3993 152.964 38.836C152.669 38.2727 152.522 37.6313 152.522 36.912ZM158.554 36.925C158.554 36.3877 158.446 35.9197 158.229 35.521C158.012 35.1223 157.718 34.819 157.345 34.611C156.981 34.3943 156.578 34.286 156.136 34.286C155.694 34.286 155.291 34.39 154.927 34.598C154.563 34.806 154.273 35.1093 154.056 35.508C153.839 35.9067 153.731 36.3747 153.731 36.912C153.731 37.458 153.839 37.9347 154.056 38.342C154.273 38.7407 154.563 39.0483 154.927 39.265C155.291 39.473 155.694 39.577 156.136 39.577C156.578 39.577 156.981 39.473 157.345 39.265C157.718 39.0483 158.012 38.7407 158.229 38.342C158.446 37.9347 158.554 37.4623 158.554 36.925ZM165.22 33.246C166.087 33.246 166.789 33.5103 167.326 34.039C167.863 34.559 168.132 35.313 168.132 36.301V40.5H166.962V36.47C166.962 35.7593 166.784 35.2177 166.429 34.845C166.074 34.4637 165.588 34.273 164.973 34.273C164.349 34.273 163.851 34.468 163.478 34.858C163.114 35.248 162.932 35.8157 162.932 36.561V40.5H161.749V33.376H162.932V34.39C163.166 34.026 163.482 33.7443 163.881 33.545C164.288 33.3457 164.735 33.246 165.22 33.246ZM169.622 36.912C169.622 36.184 169.77 35.547 170.064 35.001C170.359 34.4463 170.762 34.0173 171.273 33.714C171.793 33.4107 172.374 33.259 173.015 33.259C173.57 33.259 174.086 33.389 174.562 33.649C175.039 33.9003 175.403 34.234 175.654 34.65V30.88H176.85V40.5H175.654V39.161C175.42 39.5857 175.074 39.9367 174.614 40.214C174.155 40.4827 173.618 40.617 173.002 40.617C172.37 40.617 171.793 40.461 171.273 40.149C170.762 39.837 170.359 39.3993 170.064 38.836C169.77 38.2727 169.622 37.6313 169.622 36.912ZM175.654 36.925C175.654 36.3877 175.546 35.9197 175.329 35.521C175.113 35.1223 174.818 34.819 174.445 34.611C174.081 34.3943 173.678 34.286 173.236 34.286C172.794 34.286 172.391 34.39 172.027 34.598C171.663 34.806 171.373 35.1093 171.156 35.508C170.94 35.9067 170.831 36.3747 170.831 36.912C170.831 37.458 170.94 37.9347 171.156 38.342C171.373 38.7407 171.663 39.0483 172.027 39.265C172.391 39.473 172.794 39.577 173.236 39.577C173.678 39.577 174.081 39.473 174.445 39.265C174.818 39.0483 175.113 38.7407 175.329 38.342C175.546 37.9347 175.654 37.4623 175.654 36.925ZM181.873 36.912C181.873 36.184 182.021 35.547 182.315 35.001C182.61 34.4463 183.013 34.0173 183.524 33.714C184.044 33.4107 184.625 33.259 185.266 33.259C185.821 33.259 186.337 33.389 186.813 33.649C187.29 33.9003 187.654 34.234 187.905 34.65V30.88H189.101V40.5H187.905V39.161C187.671 39.5857 187.325 39.9367 186.865 40.214C186.406 40.4827 185.869 40.617 185.253 40.617C184.621 40.617 184.044 40.461 183.524 40.149C183.013 39.837 182.61 39.3993 182.315 38.836C182.021 38.2727 181.873 37.6313 181.873 36.912ZM187.905 36.925C187.905 36.3877 187.797 35.9197 187.58 35.521C187.364 35.1223 187.069 34.819 186.696 34.611C186.332 34.3943 185.929 34.286 185.487 34.286C185.045 34.286 184.642 34.39 184.278 34.598C183.914 34.806 183.624 35.1093 183.407 35.508C183.191 35.9067 183.082 36.3747 183.082 36.912C183.082 37.458 183.191 37.9347 183.407 38.342C183.624 38.7407 183.914 39.0483 184.278 39.265C184.642 39.473 185.045 39.577 185.487 39.577C185.929 39.577 186.332 39.473 186.696 39.265C187.069 39.0483 187.364 38.7407 187.58 38.342C187.797 37.9347 187.905 37.4623 187.905 36.925ZM192.284 34.533C192.492 34.1257 192.786 33.8093 193.168 33.584C193.558 33.3587 194.03 33.246 194.585 33.246V34.468H194.273C192.947 34.468 192.284 35.1873 192.284 36.626V40.5H191.101V33.376H192.284V34.533ZM199.057 40.617C198.39 40.617 197.783 40.4653 197.237 40.162C196.7 39.8587 196.275 39.4297 195.963 38.875C195.66 38.3117 195.508 37.6617 195.508 36.925C195.508 36.197 195.664 35.5557 195.976 35.001C196.297 34.4377 196.73 34.0087 197.276 33.714C197.822 33.4107 198.433 33.259 199.109 33.259C199.785 33.259 200.396 33.4107 200.942 33.714C201.488 34.0087 201.917 34.4333 202.229 34.988C202.55 35.5427 202.71 36.1883 202.71 36.925C202.71 37.6617 202.546 38.3117 202.216 38.875C201.896 39.4297 201.458 39.8587 200.903 40.162C200.349 40.4653 199.733 40.617 199.057 40.617ZM199.057 39.577C199.482 39.577 199.881 39.4773 200.253 39.278C200.626 39.0787 200.925 38.7797 201.15 38.381C201.384 37.9823 201.501 37.497 201.501 36.925C201.501 36.353 201.389 35.8677 201.163 35.469C200.938 35.0703 200.643 34.7757 200.279 34.585C199.915 34.3857 199.521 34.286 199.096 34.286C198.663 34.286 198.264 34.3857 197.9 34.585C197.545 34.7757 197.259 35.0703 197.042 35.469C196.826 35.8677 196.717 36.353 196.717 36.925C196.717 37.5057 196.821 37.9953 197.029 38.394C197.246 38.7927 197.532 39.0917 197.887 39.291C198.243 39.4817 198.633 39.577 199.057 39.577ZM205.449 34.689C205.683 34.2817 206.029 33.9437 206.489 33.675C206.957 33.3977 207.498 33.259 208.114 33.259C208.746 33.259 209.318 33.4107 209.83 33.714C210.35 34.0173 210.757 34.4463 211.052 35.001C211.346 35.547 211.494 36.184 211.494 36.912C211.494 37.6313 211.346 38.2727 211.052 38.836C210.757 39.3993 210.35 39.837 209.83 40.149C209.318 40.461 208.746 40.617 208.114 40.617C207.507 40.617 206.97 40.4827 206.502 40.214C206.042 39.9367 205.691 39.5943 205.449 39.187V43.88H204.266V33.376H205.449V34.689ZM210.285 36.912C210.285 36.3747 210.176 35.9067 209.96 35.508C209.743 35.1093 209.448 34.806 209.076 34.598C208.712 34.39 208.309 34.286 207.867 34.286C207.433 34.286 207.03 34.3943 206.658 34.611C206.294 34.819 205.999 35.1267 205.774 35.534C205.557 35.9327 205.449 36.3963 205.449 36.925C205.449 37.4623 205.557 37.9347 205.774 38.342C205.999 38.7407 206.294 39.0483 206.658 39.265C207.03 39.473 207.433 39.577 207.867 39.577C208.309 39.577 208.712 39.473 209.076 39.265C209.448 39.0483 209.743 38.7407 209.96 38.342C210.176 37.9347 210.285 37.458 210.285 36.912Z" fill="#373737"/>
<path d="M0 41.8H59.6781V42.45H0V41.8ZM62.1578 41.8H97.1953V42.45H62.1578V41.8Z" fill="#151515"/>
<path d="M60.1061 52.504V61.5H58.9231V54.792L55.9331 61.5H55.1011L52.0981 54.779V61.5H50.9151V52.504H52.1891L55.5171 59.94L58.8451 52.504H60.1061ZM61.6703 57.912C61.6703 57.184 61.8177 56.547 62.1123 56.001C62.407 55.4463 62.81 55.0173 63.3213 54.714C63.8413 54.4107 64.4177 54.259 65.0503 54.259C65.6743 54.259 66.216 54.3933 66.6753 54.662C67.1347 54.9307 67.477 55.2687 67.7023 55.676V54.376H68.8983V61.5H67.7023V60.174C67.4683 60.59 67.1173 60.9367 66.6493 61.214C66.19 61.4827 65.6527 61.617 65.0373 61.617C64.4047 61.617 63.8327 61.461 63.3213 61.149C62.81 60.837 62.407 60.3993 62.1123 59.836C61.8177 59.2727 61.6703 58.6313 61.6703 57.912ZM67.7023 57.925C67.7023 57.3877 67.594 56.9197 67.3773 56.521C67.1607 56.1223 66.866 55.819 66.4933 55.611C66.1293 55.3943 65.7263 55.286 65.2843 55.286C64.8423 55.286 64.4393 55.39 64.0753 55.598C63.7113 55.806 63.421 56.1093 63.2043 56.508C62.9877 56.9067 62.8793 57.3747 62.8793 57.912C62.8793 58.458 62.9877 58.9347 63.2043 59.342C63.421 59.7407 63.7113 60.0483 64.0753 60.265C64.4393 60.473 64.8423 60.577 65.2843 60.577C65.7263 60.577 66.1293 60.473 66.4933 60.265C66.866 60.0483 67.1607 59.7407 67.3773 59.342C67.594 58.9347 67.7023 58.4623 67.7023 57.925ZM74.6155 61.5L72.9255 58.848L71.3005 61.5H70.0655L72.3665 57.964L70.0655 54.376H71.4045L73.0945 57.015L74.7065 54.376H75.9415L73.6535 57.899L75.9545 61.5H74.6155ZM77.4952 61.578C77.2699 61.578 77.0792 61.5 76.9232 61.344C76.7672 61.188 76.6892 60.9973 76.6892 60.772C76.6892 60.5467 76.7672 60.356 76.9232 60.2C77.0792 60.044 77.2699 59.966 77.4952 59.966C77.7119 59.966 77.8939 60.044 78.0412 60.2C78.1972 60.356 78.2752 60.5467 78.2752 60.772C78.2752 60.9973 78.1972 61.188 78.0412 61.344C77.8939 61.5 77.7119 61.578 77.4952 61.578ZM86.7845 54.246C87.6512 54.246 88.3532 54.5103 88.8905 55.039C89.4278 55.559 89.6965 56.313 89.6965 57.301V61.5H88.5265V57.47C88.5265 56.7593 88.3488 56.2177 87.9935 55.845C87.6382 55.4637 87.1528 55.273 86.5375 55.273C85.9135 55.273 85.4152 55.468 85.0425 55.858C84.6785 56.248 84.4965 56.8157 84.4965 57.561V61.5H83.3135V54.376H84.4965V55.39C84.7305 55.026 85.0468 54.7443 85.4455 54.545C85.8528 54.3457 86.2992 54.246 86.7845 54.246ZM94.7359 61.617C94.0686 61.617 93.4619 61.4653 92.9159 61.162C92.3786 60.8587 91.9539 60.4297 91.6419 59.875C91.3386 59.3117 91.1869 58.6617 91.1869 57.925C91.1869 57.197 91.3429 56.5557 91.6549 56.001C91.9756 55.4377 92.4089 55.0087 92.9549 54.714C93.5009 54.4107 94.1119 54.259 94.7879 54.259C95.4639 54.259 96.0749 54.4107 96.6209 54.714C97.1669 55.0087 97.5959 55.4333 97.9079 55.988C98.2286 56.5427 98.3889 57.1883 98.3889 57.925C98.3889 58.6617 98.2243 59.3117 97.8949 59.875C97.5743 60.4297 97.1366 60.8587 96.5819 61.162C96.0273 61.4653 95.4119 61.617 94.7359 61.617ZM94.7359 60.577C95.1606 60.577 95.5593 60.4773 95.9319 60.278C96.3046 60.0787 96.6036 59.7797 96.8289 59.381C97.0629 58.9823 97.1799 58.497 97.1799 57.925C97.1799 57.353 97.0673 56.8677 96.8419 56.469C96.6166 56.0703 96.3219 55.7757 95.9579 55.585C95.5939 55.3857 95.1996 55.286 94.7749 55.286C94.3416 55.286 93.9429 55.3857 93.5789 55.585C93.2236 55.7757 92.9376 56.0703 92.7209 56.469C92.5043 56.8677 92.3959 57.353 92.3959 57.925C92.3959 58.5057 92.4999 58.9953 92.7079 59.394C92.9246 59.7927 93.2106 60.0917 93.5659 60.291C93.9213 60.4817 94.3113 60.577 94.7359 60.577ZM106.517 61.617C105.85 61.617 105.243 61.4653 104.697 61.162C104.16 60.8587 103.735 60.4297 103.423 59.875C103.12 59.3117 102.968 58.6617 102.968 57.925C102.968 57.197 103.124 56.5557 103.436 56.001C103.757 55.4377 104.19 55.0087 104.736 54.714C105.282 54.4107 105.893 54.259 106.569 54.259C107.245 54.259 107.856 54.4107 108.402 54.714C108.948 55.0087 109.377 55.4333 109.689 55.988C110.01 56.5427 110.17 57.1883 110.17 57.925C110.17 58.6617 110.006 59.3117 109.676 59.875C109.356 60.4297 108.918 60.8587 108.363 61.162C107.809 61.4653 107.193 61.617 106.517 61.617ZM106.517 60.577C106.942 60.577 107.341 60.4773 107.713 60.278C108.086 60.0787 108.385 59.7797 108.61 59.381C108.844 58.9823 108.961 58.497 108.961 57.925C108.961 57.353 108.849 56.8677 108.623 56.469C108.398 56.0703 108.103 55.7757 107.739 55.585C107.375 55.3857 106.981 55.286 106.556 55.286C106.123 55.286 105.724 55.3857 105.36 55.585C105.005 55.7757 104.719 56.0703 104.502 56.469C104.286 56.8677 104.177 57.353 104.177 57.925C104.177 58.5057 104.281 58.9953 104.489 59.394C104.706 59.7927 104.992 60.0917 105.347 60.291C105.703 60.4817 106.093 60.577 106.517 60.577ZM114.625 55.351H113.13V61.5H111.947V55.351H111.024V54.376H111.947V53.869C111.947 53.0717 112.15 52.491 112.558 52.127C112.974 51.7543 113.637 51.568 114.547 51.568V52.556C114.027 52.556 113.658 52.66 113.442 52.868C113.234 53.0673 113.13 53.401 113.13 53.869V54.376H114.625V55.351ZM122.369 55.351H120.874V61.5H119.691V55.351H118.768V54.376H119.691V53.869C119.691 53.0717 119.894 52.491 120.302 52.127C120.718 51.7543 121.381 51.568 122.291 51.568V52.556C121.771 52.556 121.402 52.66 121.186 52.868C120.978 53.0673 120.874 53.401 120.874 53.869V54.376H122.369V55.351ZM124.359 53.219C124.134 53.219 123.943 53.141 123.787 52.985C123.631 52.829 123.553 52.6383 123.553 52.413C123.553 52.1877 123.631 51.997 123.787 51.841C123.943 51.685 124.134 51.607 124.359 51.607C124.576 51.607 124.758 51.685 124.905 51.841C125.061 51.997 125.139 52.1877 125.139 52.413C125.139 52.6383 125.061 52.829 124.905 52.985C124.758 53.141 124.576 53.219 124.359 53.219ZM124.931 54.376V61.5H123.748V54.376H124.931ZM128.13 51.88V61.5H126.947V51.88H128.13ZM136.647 57.665C136.647 57.8903 136.634 58.1287 136.608 58.38H130.914C130.957 59.082 131.195 59.6323 131.629 60.031C132.071 60.421 132.604 60.616 133.228 60.616C133.739 60.616 134.164 60.499 134.502 60.265C134.848 60.0223 135.091 59.7017 135.23 59.303H136.504C136.313 59.9877 135.932 60.5467 135.36 60.98C134.788 61.4047 134.077 61.617 133.228 61.617C132.552 61.617 131.945 61.4653 131.408 61.162C130.879 60.8587 130.463 60.4297 130.16 59.875C129.856 59.3117 129.705 58.6617 129.705 57.925C129.705 57.1883 129.852 56.5427 130.147 55.988C130.441 55.4333 130.853 55.0087 131.382 54.714C131.919 54.4107 132.534 54.259 133.228 54.259C133.904 54.259 134.502 54.4063 135.022 54.701C135.542 54.9957 135.94 55.403 136.218 55.923C136.504 56.4343 136.647 57.015 136.647 57.665ZM135.425 57.418C135.425 56.9673 135.325 56.5817 135.126 56.261C134.926 55.9317 134.653 55.6847 134.307 55.52C133.969 55.3467 133.592 55.26 133.176 55.26C132.578 55.26 132.066 55.4507 131.642 55.832C131.226 56.2133 130.987 56.742 130.927 57.418H135.425ZM140.73 61.617C140.184 61.617 139.694 61.526 139.261 61.344C138.828 61.1533 138.485 60.8933 138.234 60.564C137.983 60.226 137.844 59.8403 137.818 59.407H139.04C139.075 59.7623 139.239 60.0527 139.534 60.278C139.837 60.5033 140.232 60.616 140.717 60.616C141.168 60.616 141.523 60.5163 141.783 60.317C142.043 60.1177 142.173 59.8663 142.173 59.563C142.173 59.251 142.034 59.0213 141.757 58.874C141.48 58.718 141.051 58.5663 140.47 58.419C139.941 58.2803 139.508 58.1417 139.17 58.003C138.841 57.8557 138.555 57.6433 138.312 57.366C138.078 57.08 137.961 56.7073 137.961 56.248C137.961 55.884 138.069 55.5503 138.286 55.247C138.503 54.9437 138.81 54.7053 139.209 54.532C139.608 54.35 140.063 54.259 140.574 54.259C141.363 54.259 142 54.4583 142.485 54.857C142.97 55.2557 143.23 55.8017 143.265 56.495H142.082C142.056 56.1223 141.904 55.8233 141.627 55.598C141.358 55.3727 140.994 55.26 140.535 55.26C140.11 55.26 139.772 55.351 139.521 55.533C139.27 55.715 139.144 55.9533 139.144 56.248C139.144 56.482 139.218 56.677 139.365 56.833C139.521 56.9803 139.712 57.1017 139.937 57.197C140.171 57.2837 140.492 57.3833 140.899 57.496C141.41 57.6347 141.826 57.7733 142.147 57.912C142.468 58.042 142.741 58.2413 142.966 58.51C143.2 58.7787 143.321 59.1297 143.33 59.563C143.33 59.953 143.222 60.304 143.005 60.616C142.788 60.928 142.481 61.175 142.082 61.357C141.692 61.5303 141.241 61.617 140.73 61.617ZM149.077 53.219C148.852 53.219 148.661 53.141 148.505 52.985C148.349 52.829 148.271 52.6383 148.271 52.413C148.271 52.1877 148.349 51.997 148.505 51.841C148.661 51.685 148.852 51.607 149.077 51.607C149.294 51.607 149.476 51.685 149.623 51.841C149.779 51.997 149.857 52.1877 149.857 52.413C149.857 52.6383 149.779 52.829 149.623 52.985C149.476 53.141 149.294 53.219 149.077 53.219ZM149.649 54.376V61.5H148.466V54.376H149.649ZM154.187 61.617C153.641 61.617 153.151 61.526 152.718 61.344C152.285 61.1533 151.942 60.8933 151.691 60.564C151.44 60.226 151.301 59.8403 151.275 59.407H152.497C152.532 59.7623 152.696 60.0527 152.991 60.278C153.294 60.5033 153.689 60.616 154.174 60.616C154.625 60.616 154.98 60.5163 155.24 60.317C155.5 60.1177 155.63 59.8663 155.63 59.563C155.63 59.251 155.491 59.0213 155.214 58.874C154.937 58.718 154.508 58.5663 153.927 58.419C153.398 58.2803 152.965 58.1417 152.627 58.003C152.298 57.8557 152.012 57.6433 151.769 57.366C151.535 57.08 151.418 56.7073 151.418 56.248C151.418 55.884 151.526 55.5503 151.743 55.247C151.96 54.9437 152.267 54.7053 152.666 54.532C153.065 54.35 153.52 54.259 154.031 54.259C154.82 54.259 155.457 54.4583 155.942 54.857C156.427 55.2557 156.687 55.8017 156.722 56.495H155.539C155.513 56.1223 155.361 55.8233 155.084 55.598C154.815 55.3727 154.451 55.26 153.992 55.26C153.567 55.26 153.229 55.351 152.978 55.533C152.727 55.715 152.601 55.9533 152.601 56.248C152.601 56.482 152.675 56.677 152.822 56.833C152.978 56.9803 153.169 57.1017 153.394 57.197C153.628 57.2837 153.949 57.3833 154.356 57.496C154.867 57.6347 155.283 57.7733 155.604 57.912C155.925 58.042 156.198 58.2413 156.423 58.51C156.657 58.7787 156.778 59.1297 156.787 59.563C156.787 59.953 156.679 60.304 156.462 60.616C156.245 60.928 155.938 61.175 155.539 61.357C155.149 61.5303 154.698 61.617 154.187 61.617ZM161.416 53.18V52.101H163.86V61.5H162.664V53.18H161.416Z" fill="#2A2A2A"/>
<path d="M35.7909 77.963C35.7909 77.079 35.9903 76.286 36.3889 75.584C36.7876 74.8733 37.3293 74.3187 38.0139 73.92C38.7073 73.5213 39.4743 73.322 40.3149 73.322C41.3029 73.322 42.1653 73.5603 42.9019 74.037C43.6386 74.5137 44.1759 75.1897 44.5139 76.065H43.0969C42.8456 75.519 42.4816 75.0987 42.0049 74.804C41.5369 74.5093 40.9736 74.362 40.3149 74.362C39.6823 74.362 39.1146 74.5093 38.6119 74.804C38.1093 75.0987 37.7149 75.519 37.4289 76.065C37.1429 76.6023 36.9999 77.235 36.9999 77.963C36.9999 78.6823 37.1429 79.315 37.4289 79.861C37.7149 80.3983 38.1093 80.8143 38.6119 81.109C39.1146 81.4037 39.6823 81.551 40.3149 81.551C40.9736 81.551 41.5369 81.408 42.0049 81.122C42.4816 80.8273 42.8456 80.407 43.0969 79.861H44.5139C44.1759 80.7277 43.6386 81.3993 42.9019 81.876C42.1653 82.344 41.3029 82.578 40.3149 82.578C39.4743 82.578 38.7073 82.383 38.0139 81.993C37.3293 81.5943 36.7876 81.044 36.3889 80.342C35.9903 79.64 35.7909 78.847 35.7909 77.963ZM49.1479 82.591C48.5499 82.591 48.0126 82.487 47.5359 82.279C47.0679 82.0623 46.6996 81.7677 46.4309 81.395C46.1623 81.0137 46.0236 80.576 46.0149 80.082H47.2759C47.3193 80.5067 47.4926 80.8663 47.7959 81.161C48.1079 81.447 48.5586 81.59 49.1479 81.59C49.7113 81.59 50.1533 81.4513 50.4739 81.174C50.8033 80.888 50.9679 80.524 50.9679 80.082C50.9679 79.7353 50.8726 79.4537 50.6819 79.237C50.4913 79.0203 50.2529 78.8557 49.9669 78.743C49.6809 78.6303 49.2953 78.509 48.8099 78.379C48.2119 78.223 47.7309 78.067 47.3669 77.911C47.0116 77.755 46.7039 77.5123 46.4439 77.183C46.1926 76.845 46.0669 76.3943 46.0669 75.831C46.0669 75.337 46.1926 74.8993 46.4439 74.518C46.6953 74.1367 47.0463 73.842 47.4969 73.634C47.9563 73.426 48.4806 73.322 49.0699 73.322C49.9193 73.322 50.6126 73.5343 51.1499 73.959C51.6959 74.3837 52.0036 74.947 52.0729 75.649H50.7729C50.7296 75.3023 50.5476 74.999 50.2269 74.739C49.9063 74.4703 49.4816 74.336 48.9529 74.336C48.4589 74.336 48.0559 74.466 47.7439 74.726C47.4319 74.9773 47.2759 75.3327 47.2759 75.792C47.2759 76.1213 47.3669 76.39 47.5489 76.598C47.7396 76.806 47.9693 76.9663 48.2379 77.079C48.5153 77.183 48.9009 77.3043 49.3949 77.443C49.9929 77.6077 50.4739 77.7723 50.8379 77.937C51.2019 78.093 51.5139 78.34 51.7739 78.678C52.0339 79.0073 52.1639 79.458 52.1639 80.03C52.1639 80.472 52.0469 80.888 51.8129 81.278C51.5789 81.668 51.2323 81.9843 50.7729 82.227C50.3136 82.4697 49.7719 82.591 49.1479 82.591ZM61.3928 73.439L57.9738 82.5H56.6088L53.1898 73.439H54.4508L57.2978 81.252L60.1448 73.439H61.3928ZM69.2628 82.617C68.5955 82.617 67.9888 82.4653 67.4428 82.162C66.9055 81.8587 66.4808 81.4297 66.1688 80.875C65.8655 80.3117 65.7138 79.6617 65.7138 78.925C65.7138 78.197 65.8698 77.5557 66.1818 77.001C66.5025 76.4377 66.9358 76.0087 67.4818 75.714C68.0278 75.4107 68.6388 75.259 69.3148 75.259C69.9908 75.259 70.6018 75.4107 71.1478 75.714C71.6938 76.0087 72.1228 76.4333 72.4348 76.988C72.7555 77.5427 72.9158 78.1883 72.9158 78.925C72.9158 79.6617 72.7511 80.3117 72.4218 80.875C72.1011 81.4297 71.6635 81.8587 71.1088 82.162C70.5541 82.4653 69.9388 82.617 69.2628 82.617ZM69.2628 81.577C69.6875 81.577 70.0861 81.4773 70.4588 81.278C70.8315 81.0787 71.1305 80.7797 71.3558 80.381C71.5898 79.9823 71.7068 79.497 71.7068 78.925C71.7068 78.353 71.5941 77.8677 71.3688 77.469C71.1435 77.0703 70.8488 76.7757 70.4848 76.585C70.1208 76.3857 69.7265 76.286 69.3018 76.286C68.8685 76.286 68.4698 76.3857 68.1058 76.585C67.7505 76.7757 67.4645 77.0703 67.2478 77.469C67.0311 77.8677 66.9228 78.353 66.9228 78.925C66.9228 79.5057 67.0268 79.9953 67.2348 80.394C67.4515 80.7927 67.7375 81.0917 68.0928 81.291C68.4481 81.4817 68.8381 81.577 69.2628 81.577ZM75.6542 76.533C75.8622 76.1257 76.1569 75.8093 76.5382 75.584C76.9282 75.3587 77.4005 75.246 77.9552 75.246V76.468H77.6432C76.3172 76.468 75.6542 77.1873 75.6542 78.626V82.5H74.4712V75.376H75.6542V76.533ZM83.9696 74.401V77.43H87.2716V78.405H83.9696V81.525H87.6616V82.5H82.7866V73.426H87.6616V74.401H83.9696ZM93.1697 82.5L91.4797 79.848L89.8547 82.5H88.6197L90.9207 78.964L88.6197 75.376H89.9587L91.6487 78.015L93.2607 75.376H94.4957L92.2077 78.899L94.5087 82.5H93.1697ZM95.2304 78.925C95.2304 78.1883 95.3777 77.547 95.6724 77.001C95.9671 76.4463 96.3744 76.0173 96.8944 75.714C97.4231 75.4107 98.0254 75.259 98.7014 75.259C99.5767 75.259 100.296 75.4713 100.859 75.896C101.431 76.3207 101.808 76.91 101.99 77.664H100.716C100.595 77.2307 100.357 76.8883 100.001 76.637C99.6547 76.3857 99.2214 76.26 98.7014 76.26C98.0254 76.26 97.4794 76.494 97.0634 76.962C96.6474 77.4213 96.4394 78.0757 96.4394 78.925C96.4394 79.783 96.6474 80.446 97.0634 80.914C97.4794 81.382 98.0254 81.616 98.7014 81.616C99.2214 81.616 99.6547 81.4947 100.001 81.252C100.348 81.0093 100.586 80.6627 100.716 80.212H101.99C101.8 80.94 101.418 81.525 100.846 81.967C100.274 82.4003 99.5594 82.617 98.7014 82.617C98.0254 82.617 97.4231 82.4653 96.8944 82.162C96.3744 81.8587 95.9671 81.4297 95.6724 80.875C95.3777 80.3203 95.2304 79.6703 95.2304 78.925ZM110.069 78.665C110.069 78.8903 110.056 79.1287 110.03 79.38H104.336C104.379 80.082 104.618 80.6323 105.051 81.031C105.493 81.421 106.026 81.616 106.65 81.616C107.161 81.616 107.586 81.499 107.924 81.265C108.271 81.0223 108.513 80.7017 108.652 80.303H109.926C109.735 80.9877 109.354 81.5467 108.782 81.98C108.21 82.4047 107.499 82.617 106.65 82.617C105.974 82.617 105.367 82.4653 104.83 82.162C104.301 81.8587 103.885 81.4297 103.582 80.875C103.279 80.3117 103.127 79.6617 103.127 78.925C103.127 78.1883 103.274 77.5427 103.569 76.988C103.864 76.4333 104.275 76.0087 104.804 75.714C105.341 75.4107 105.957 75.259 106.65 75.259C107.326 75.259 107.924 75.4063 108.444 75.701C108.964 75.9957 109.363 76.403 109.64 76.923C109.926 77.4343 110.069 78.015 110.069 78.665ZM108.847 78.418C108.847 77.9673 108.747 77.5817 108.548 77.261C108.349 76.9317 108.076 76.6847 107.729 76.52C107.391 76.3467 107.014 76.26 106.598 76.26C106 76.26 105.489 76.4507 105.064 76.832C104.648 77.2133 104.41 77.742 104.349 78.418H108.847ZM112.813 72.88V82.5H111.63V72.88H112.813ZM121.194 76.351H119.699V82.5H118.516V76.351H117.593V75.376H118.516V74.869C118.516 74.0717 118.72 73.491 119.127 73.127C119.543 72.7543 120.206 72.568 121.116 72.568V73.556C120.596 73.556 120.228 73.66 120.011 73.868C119.803 74.0673 119.699 74.401 119.699 74.869V75.376H121.194V76.351ZM123.185 74.219C122.959 74.219 122.769 74.141 122.613 73.985C122.457 73.829 122.379 73.6383 122.379 73.413C122.379 73.1877 122.457 72.997 122.613 72.841C122.769 72.685 122.959 72.607 123.185 72.607C123.401 72.607 123.583 72.685 123.731 72.841C123.887 72.997 123.965 73.1877 123.965 73.413C123.965 73.6383 123.887 73.829 123.731 73.985C123.583 74.141 123.401 74.219 123.185 74.219ZM123.757 75.376V82.5H122.574V75.376H123.757ZM126.956 72.88V82.5H125.773V72.88H126.956ZM135.472 78.665C135.472 78.8903 135.459 79.1287 135.433 79.38H129.739C129.783 80.082 130.021 80.6323 130.454 81.031C130.896 81.421 131.429 81.616 132.053 81.616C132.565 81.616 132.989 81.499 133.327 81.265C133.674 81.0223 133.917 80.7017 134.055 80.303H135.329C135.139 80.9877 134.757 81.5467 134.185 81.98C133.613 82.4047 132.903 82.617 132.053 82.617C131.377 82.617 130.771 82.4653 130.233 82.162C129.705 81.8587 129.289 81.4297 128.985 80.875C128.682 80.3117 128.53 79.6617 128.53 78.925C128.53 78.1883 128.678 77.5427 128.972 76.988C129.267 76.4333 129.679 76.0087 130.207 75.714C130.745 75.4107 131.36 75.259 132.053 75.259C132.729 75.259 133.327 75.4063 133.847 75.701C134.367 75.9957 134.766 76.403 135.043 76.923C135.329 77.4343 135.472 78.015 135.472 78.665ZM134.25 78.418C134.25 77.9673 134.151 77.5817 133.951 77.261C133.752 76.9317 133.479 76.6847 133.132 76.52C132.794 76.3467 132.417 76.26 132.001 76.26C131.403 76.26 130.892 76.4507 130.467 76.832C130.051 77.2133 129.813 77.742 129.752 78.418H134.25ZM139.556 82.617C139.01 82.617 138.52 82.526 138.087 82.344C137.653 82.1533 137.311 81.8933 137.06 81.564C136.808 81.226 136.67 80.8403 136.644 80.407H137.866C137.9 80.7623 138.065 81.0527 138.36 81.278C138.663 81.5033 139.057 81.616 139.543 81.616C139.993 81.616 140.349 81.5163 140.609 81.317C140.869 81.1177 140.999 80.8663 140.999 80.563C140.999 80.251 140.86 80.0213 140.583 79.874C140.305 79.718 139.876 79.5663 139.296 79.419C138.767 79.2803 138.334 79.1417 137.996 79.003C137.666 78.8557 137.38 78.6433 137.138 78.366C136.904 78.08 136.787 77.7073 136.787 77.248C136.787 76.884 136.895 76.5503 137.112 76.247C137.328 75.9437 137.636 75.7053 138.035 75.532C138.433 75.35 138.888 75.259 139.4 75.259C140.188 75.259 140.825 75.4583 141.311 75.857C141.796 76.2557 142.056 76.8017 142.091 77.495H140.908C140.882 77.1223 140.73 76.8233 140.453 76.598C140.184 76.3727 139.82 76.26 139.361 76.26C138.936 76.26 138.598 76.351 138.347 76.533C138.095 76.715 137.97 76.9533 137.97 77.248C137.97 77.482 138.043 77.677 138.191 77.833C138.347 77.9803 138.537 78.1017 138.763 78.197C138.997 78.2837 139.317 78.3833 139.725 78.496C140.236 78.6347 140.652 78.7733 140.973 78.912C141.293 79.042 141.566 79.2413 141.792 79.51C142.026 79.7787 142.147 80.1297 142.156 80.563C142.156 80.953 142.047 81.304 141.831 81.616C141.614 81.928 141.306 82.175 140.908 82.357C140.518 82.5303 140.067 82.617 139.556 82.617ZM150.399 82.617C149.731 82.617 149.125 82.4653 148.579 82.162C148.041 81.8587 147.617 81.4297 147.305 80.875C147.001 80.3117 146.85 79.6617 146.85 78.925C146.85 78.197 147.006 77.5557 147.318 77.001C147.638 76.4377 148.072 76.0087 148.618 75.714C149.164 75.4107 149.775 75.259 150.451 75.259C151.127 75.259 151.738 75.4107 152.284 75.714C152.83 76.0087 153.259 76.4333 153.571 76.988C153.891 77.5427 154.052 78.1883 154.052 78.925C154.052 79.6617 153.887 80.3117 153.558 80.875C153.237 81.4297 152.799 81.8587 152.245 82.162C151.69 82.4653 151.075 82.617 150.399 82.617ZM150.399 81.577C150.823 81.577 151.222 81.4773 151.595 81.278C151.967 81.0787 152.266 80.7797 152.492 80.381C152.726 79.9823 152.843 79.497 152.843 78.925C152.843 78.353 152.73 77.8677 152.505 77.469C152.279 77.0703 151.985 76.7757 151.621 76.585C151.257 76.3857 150.862 76.286 150.438 76.286C150.004 76.286 149.606 76.3857 149.242 76.585C148.886 76.7757 148.6 77.0703 148.384 77.469C148.167 77.8677 148.059 78.353 148.059 78.925C148.059 79.5057 148.163 79.9953 148.371 80.394C148.587 80.7927 148.873 81.0917 149.229 81.291C149.584 81.4817 149.974 81.577 150.399 81.577ZM159.078 75.246C159.945 75.246 160.647 75.5103 161.184 76.039C161.721 76.559 161.99 77.313 161.99 78.301V82.5H160.82V78.47C160.82 77.7593 160.642 77.2177 160.287 76.845C159.932 76.4637 159.446 76.273 158.831 76.273C158.207 76.273 157.709 76.468 157.336 76.858C156.972 77.248 156.79 77.8157 156.79 78.561V82.5H155.607V75.376H156.79V76.39C157.024 76.026 157.34 75.7443 157.739 75.545C158.146 75.3457 158.593 75.246 159.078 75.246ZM165.105 72.88V82.5H163.922V72.88H165.105ZM173.258 75.376L168.968 85.854H167.746L169.15 82.422L166.277 75.376H167.59L169.826 81.148L172.036 75.376H173.258ZM178.477 73.79L178.945 74.635L177.138 75.389L178.958 76.13L178.464 77.001L176.891 75.857L177.099 77.82H176.124L176.319 75.857L174.746 77.014L174.239 76.13L176.046 75.376L174.239 74.648L174.72 73.777L176.332 74.934L176.124 72.958H177.112L176.891 74.934L178.477 73.79Z" fill="#2A2A2A"/>
</svg>
